<svg xmlns="http://www.w3.org/2000/svg" width="128" height="128" viewBox="0 0 128 128" role="img" aria-label="Serag">
  <defs>
    <linearGradient id="g1" x1="0" y1="0" x2="1" y2="1">
      <stop offset="0" stop-color="#7C5CFF"/>
      <stop offset="1" stop-color="#27D3A6"/>
    </linearGradient>
    <radialGradient id="g2" cx="30%" cy="30%" r="70%">
      <stop offset="0" stop-color="#FFFFFF" stop-opacity="0.18"/>
      <stop offset="1" stop-color="#FFFFFF" stop-opacity="0"/>
    </radialGradient>
  </defs>

  <rect x="12" y="12" width="104" height="104" rx="28" fill="url(#g1)"/>
  <rect x="12" y="12" width="104" height="104" rx="28" fill="url(#g2)"/>

  <rect x="18" y="18" width="92" height="92" rx="24" fill="none" stroke="#FFFFFF" stroke-opacity="0.18"/>

  <path d="M46 44
           C46 36 54 30 64 30
           C76 30 86 38 86 52
           C86 64 78 72 66 72
           C60 72 56 70 52 68
           C50 75 54 82 64 82
           C78 82 90 72 94 60
           C94 85 78 100 54 100
           C36 100 28 88 28 76
           C28 60 36 52 46 52
           Z"
        fill="#0B1220" fill-opacity="0.92"/>

  <circle cx="40" cy="92" r="6" fill="#FFD166" fill-opacity="0.95"/>
</svg>
